<svg fill="none" height="159" viewBox="0 0 280 159" width="280" xmlns="http://www.w3.org/2000/svg"><path d="m151.925 43.1907c.061.8632-.09 1.7291-.433 2.4881-.342.759-.862 1.3772-1.492 1.7764-.631.3992-1.344.5615-2.05.4665-.707-.0951-1.374-.4433-1.918-1.0006s-.94-1.2987-1.139-2.1306c-.198-.8319-.19-1.7169.023-2.5432.214-.8263.624-1.5569 1.178-2.0994s1.227-.8726 1.935-.9486c.471-.0506.945.0126 1.396.1859.45.1734.869.4534 1.231.8242.362.3707.66.8249.878 1.3365s.35 1.0705.391 1.6448z" fill="#fff"/><path d="m144.105 51.2729c.034.4809-.051.9632-.242 1.3857-.191.4226-.481.7665-.832.9883-.352.2217-.749.3115-1.143.2577-.393-.0537-.765-.2484-1.067-.5595-.303-.3111-.523-.7246-.633-1.1883s-.105-.9567.015-1.4167.349-.8664.658-1.1678.685-.4842 1.079-.5254c.262-.0284.527.0067.778.1034s.483.253.685.4599c.201.2069.367.4604.487.7457.121.2854.194.597.215.917z" fill="#fff"/><path d="m178.77 22.8028c.334 3.3697-.442 6.7634-2.158 9.4359s-4.231 4.4054-6.994 4.8181c-1.818.276-3.664-.0391-5.35-.9134-.822 1.3128-1.882 2.3768-3.096 3.1091-1.215.7323-2.551 1.1133-3.906 1.1133s-2.691-.381-3.906-1.1133c-1.214-.7323-2.274-1.7963-3.096-3.1091-.387.1394-.783.2395-1.183.2993-1.371.2041-2.761-.081-4.001-.8207s-2.278-1.9022-2.988-3.3467c-.709-1.4445-1.06-3.1089-1.009-4.7916.05-1.6826.5-3.3113 1.294-4.6886-1.546-2.3998-2.339-5.3946-2.235-8.4443s1.098-5.95378 2.803-8.18854c1.705-2.23475 4.008-3.65316 6.495-3.99949 2.487-.34634 4.993.4022 7.068 2.11064.973-1.47521 2.248-2.61082 3.696-3.291902 1.449-.681079 3.019-.883453 4.552-.586639s2.975 1.082281 4.179 2.276901c1.204 1.19463 2.128 2.75601 2.679 4.52612.367-.15083.747-.25374 1.133-.30703 1.163-.17011 2.342.09643 3.379.76409 1.036.66766 1.881 1.70472 2.422 2.97295.541 1.2682.752 2.7073.605 4.1255s-.645 2.7481-1.428 3.8124c.551 1.3262.904 2.7606 1.045 4.237z" fill="#fff"/><path d="m160.834 23.2024c-.013-.9342.124-1.8625.403-2.7326.351-.9131.943-1.6563 1.681-2.1108.258-.1919.566-.3992.944-.6371.382-.2455.746-.5306 1.089-.852.352-.3264.658-.7205.906-1.1667.248-.4541.378-.9894.371-1.5352.007-.3984-.064-.793-.207-1.1514-.13-.3208-.312-.6057-.535-.8366-.228-.2311-.491-.4035-.775-.5066-.29-.1152-.594-.1748-.9-.1766-.349-.0079-.697.0731-1.019.238-.295.1482-.573.3444-.825.5833-.235.2401-.446.5132-.629.8137-.181.2707-.347.5553-.497.852l-2.216-1.8652c.215-.6233.513-1.1991.881-1.7041.355-.49791.771-.92523 1.234-1.26648.472-.33943.98-.59772 1.51-.76758.549-.17635 1.114-.26409 1.681-.26098.639.00404 1.275.11774 1.888.33774.618.22467 1.193.595 1.693 1.08997.516.51903.932 1.16853 1.221 1.90363.326.8712.486 1.8213.466 2.7786.008.5915-.056 1.1812-.189 1.7501-.12.4933-.305.9598-.547 1.3816-.238.416-.52.7927-.837 1.1207-.345.3525-.711.6732-1.096.9595l-1.019.7138c-.327.2216-.636.4785-.925.7676-.279.2652-.516.5904-.699.9595-.19.4007-.283.858-.271 1.3202zm.051 7.2306v-4.2831h2.819v4.2831z" fill="#407bff"/><path d="m154.526 15.1889c.175.909.196 1.8517.063 2.771-.179.9774-.622 1.8532-1.258 2.487-.221.2456-.491.5296-.819.8597-.333.3366-.642.7063-.925 1.1053-.288.4066-.52.8682-.686 1.3663-.166.5072-.201 1.0643-.101 1.5965.057.3891.191.7552.391 1.067.18.2843.407.5196.667.6908.261.1707.548.2751.843.307.305.0338.613.0131.913-.0614.342-.0801.668-.2446.956-.4836.264-.2172.503-.4752.712-.7675.201-.2932.372-.6155.51-.9595.128-.3114.242-.6318.339-.9595l2.48 1.2742c-.101.6646-.295 1.3031-.572 1.8882-.27.5717-.609 1.0894-1.008 1.5352-.404.4524-.857.8346-1.346 1.136-.507.3103-1.044.5374-1.599.6755-.633.164-1.282.2132-1.926.1458-.642-.0586-1.267-.2753-1.838-.6371-.589-.3748-1.106-.8981-1.517-1.5351-.743-1.2696-1.109-2.8101-1.039-4.3676.035-.5103.137-1.0105.303-1.4814.161-.4669.373-.9057.629-1.3049.278-.433.58-.8409.906-1.2204.29-.3224.586-.6448.875-.9518.28-.3045.535-.6413.762-1.0056.221-.3324.394-.7089.51-1.1129.115-.4401.128-.9102.037-1.3587zm-1.258-7.0617.723 4.191-2.763.7062-.724-4.19103z" fill="#407bff"/><path d="m238.637 65.7944h-70.434c-8.642 0-15.648 7.006-15.648 15.6483v57.3243c0 8.642 7.006 15.648 15.648 15.648h70.434c8.642 0 15.648-7.006 15.648-15.648v-57.3243c0-8.6423-7.006-15.6483-15.648-15.6483z" fill="#407bff"/><path d="m238.637 65.7961h-70.434c-8.642 0-15.648 7.006-15.648 15.6483v57.3246c0 8.642 7.006 15.648 15.648 15.648h70.434c8.642 0 15.648-7.006 15.648-15.648v-57.3246c0-8.6423-7.006-15.6483-15.648-15.6483z" fill="#000" opacity=".4"/><path d="m254.273 96.688h15.237l-15.58 15.584z" fill="#407bff"/><path d="m254.265 96.6892h15.237l-15.58 15.5838z" fill="#000" opacity=".4"/><path d="m150.133 106.269-6.386-7.2616c-1.726-1.7265-2.319-2.5576-1.972-2.8601.46-.4034.262-.2703 3.848 2.4204 0 0-5.083-3.8848-3.32-3.909.311 0 1.174.5002 2.098 1.1053-1.259-1.069-1.614-1.7911-1.368-2.134.404-.597 3.518 1.5612 4.95 2.598-1.17-.8714-3.401-2.5617-3.792-3.0942-.541-.7261.553-.6656 1.44-.3631.997.3389 6.503 3.1507 8.133 3.8768.131.078.277.1267.428.1428.152.0161.305-.0007.449-.0494s.276-.1281.386-.2326c.111-.1046.197-.2319.254-.3731.601-2.5254 2.421-4.1672 3.114-4.381.694-.2138 1.231.6737.735 1.3191-.467.751-.828 1.5628-1.073 2.4124-.225.6665-.336 1.3662-.327 2.0695 0 .8068.056 1.5047.109 2.0896l5.837 8.0072-9.763 5.648z" fill="#b78876"/><path d="m147.84 99.697c-.064.0888-1.21-.6898-2.533-1.7427s-2.356-1.9807-2.28-2.0655c.077-.0847 1.211.6979 2.534 1.7428 1.323 1.0448 2.336 1.9726 2.279 2.0654z" fill="#aa6550"/><path d="m149.091 98.4223c-.064.0928-1.319-.6737-2.804-1.7064-1.484-1.0327-2.638-1.9485-2.573-2.0372.064-.0888 1.319.6696 2.803 1.7024 1.485 1.0327 2.639 1.9484 2.574 2.0412z" fill="#aa6550"/><path d="m149.997 97.0673c-.064.0928-1.266-.6091-2.682-1.5692-1.416-.9602-2.514-1.8113-2.453-1.9082.06-.0968 1.262.6092 2.682 1.5693 1.421.9601 2.514 1.8153 2.453 1.9081z" fill="#aa6550"/><path d="m158.383 100.731 23.269 29.505-5.329 12.405s-6.382-1.412-8.319-4.099c-1.936-2.687-17.871-32.272-17.871-32.272z" fill="#b78876"/><path d="m217.441 59.4534c1.674 1.4522 1.67 4.0098 1.477 6.2165-.194 2.2066-.343 4.7199 1.186 6.3254 1.262 1.3232 3.55 1.9001 3.84 3.7033.069.4237.005.8583-.183 1.244-.189.3858-.492.7038-.868.9103s-.807.2914-1.234.243c-.426-.0485-.828-.2278-1.148-.5134.492 1.424.153 3.2031-1.081 4.0664-1.235.8633-3.304.3308-3.687-1.1255.062.2431.074.4965.035.7445-.04.2479-.13.4851-.265.6966-.136.2115-.313.3929-.522.5328-.208.1399-.443.2353-.69.2803s-.501.0387-.745-.0187c-.245-.0574-.475-.1645-.676-.3147s-.369-.3402-.494-.5583c-.124-.218-.203-.4594-.23-.709" fill="#263238"/><path d="m193.481 74.3474c-.226.5403-.656.969-1.198 1.1918-.541.2228-1.149.2214-1.689-.0038s-.969-.6558-1.192-1.1971-.221-1.149.004-1.6893c.383-.8391 1.291-1.4442 1.38-2.364.105-1.1093-1.029-1.904-2.017-2.3881-.989-.4841-2.183-1.1134-2.292-2.2268s.855-1.9082 1.658-2.6262c.803-.7181 1.614-1.8315 1.102-2.7876-.255-.4921-.783-.7705-1.126-1.2102-.754-.9601-.359-2.489.605-3.2273.964-.7382 2.296-.8552 3.498-.6414s2.332.714 3.501 1.065c1.94.5639 3.975.7196 5.978.4571 2.002-.2625 3.929-.9373 5.657-1.982" fill="#263238"/><path d="m200.618 100.363c2.084.421 4.25.005 6.031-1.1573 1.78-1.1622 3.032-2.9778 3.486-5.0551l5.724-26.2457c.358-1.5155.407-3.0873.147-4.6224-.261-1.5351-.827-3.0023-1.664-4.3149-.838-1.3126-1.93-2.4439-3.213-3.327-1.282-.8832-2.729-1.5002-4.254-1.8146l-.597-.0888c-2.916-.4287-5.887.257-8.321 1.9204-2.433 1.6634-4.151 4.1825-4.81 7.0555-1.275 5.5387-2.61 11.6746-3.014 14.688-.835 6.2408 5.245 8.1206 5.245 8.1206l-1.093 5.2443c-.217 1.0449-.225 2.1223-.024 3.1704.201 1.048.607 2.0461 1.194 2.9367.588.8907 1.346 1.6565 2.231 2.2533.884.5968 1.878 1.0126 2.924 1.2246z" fill="#b78876"/><path d="m194.284 66.8446c-.036.2316.02.4679.156.6591.135.1912.34.3222.57.3656.112.0254.227.0283.34.0084.113-.0198.22-.062.316-.124.097-.062.179-.1426.244-.237.065-.0945.11-.2009.133-.313.037-.2314-.017-.4682-.152-.6598-.135-.1915-.34-.3225-.57-.3649-.112-.0255-.228-.0284-.341-.0086s-.221.0619-.317.1239c-.097.062-.18.1426-.245.237-.065.0945-.111.201-.134.3133z" fill="#263238"/><path d="m194.04 65.9564c.092.1332.839-.2702 1.799-.125s1.585.7221 1.706.6212c.061-.0443-.024-.2703-.294-.5365-.372-.3477-.843-.5717-1.347-.6414-.498-.0751-1.007.0096-1.453.242-.327.1856-.456.3792-.411.4397z" fill="#263238"/><path d="m203.644 68.3766c-.037.2318.019.4686.154.66.136.1915.341.3223.572.3647.112.0254.228.0281.341.008s.22-.0626.317-.125c.096-.0624.179-.1435.243-.2384s.109-.2018.132-.3143c.036-.2312-.02-.4676-.155-.6583-.136-.1908-.341-.3208-.571-.3623-.112-.026-.228-.0293-.341-.0097s-.221.0617-.317.1238-.179.1429-.244.2377c-.064.0947-.109.2014-.131.3138z" fill="#263238"/><path d="m203.431 67.5131c.093.1291.839-.2703 1.795-.1251.956.1453 1.59.7221 1.711.6213.056-.0444-.024-.2703-.299-.5366-.372-.3476-.843-.5717-1.347-.6414-.498-.0751-1.006.0097-1.453.2421-.31.1734-.455.3792-.407.4397z" fill="#263238"/><path d="m198.906 74.1051c0-.0565-.569-.2461-1.513-.5083-.242-.0605-.464-.1452-.48-.3187.016-.2541.109-.4973.266-.6979.32-.5567.652-1.1416.996-1.7548 1.392-2.5052 2.421-4.5746 2.336-4.6311s-1.311 1.9283-2.703 4.4375l-.968 1.7669c-.195.2743-.29.608-.266.944.025.0891.069.1716.13.2414.06.0698.136.1251.221.162.129.0553.264.0946.403.117.514.1458 1.044.2271 1.578.242z" fill="#263238"/><path d="m203.72 63.7263c.056.2743 1.033.2904 2.134.5889 1.101.2986 1.965.7383 2.15.5285.081-.1008-.04-.3711-.367-.6737-.443-.3809-.968-.6555-1.533-.803-.566-.1475-1.158-.164-1.73-.0482-.452.1049-.674.2986-.654.4075z" fill="#263238"/><path d="m194.804 63.2365c.137.2421.807.113 1.614.2179.806.1048 1.444.363 1.613.1573.085-.1009 0-.3348-.25-.585-.358-.3043-.799-.4952-1.266-.5484-.466-.0531-.939.0339-1.356.2499-.291.1816-.416.3913-.355.5083z" fill="#263238"/><path d="m210.102 60.0826.028.0323c.879.9275 1.364 2.1592 1.355 3.437v.125c0 1.8154-.326 3.6307-.322 5.4259s.351 3.7073 1.484 5.1192c.464.585 1.368 1.0691 1.896.5446.186-.2231.305-.4945.343-.7826.96-4.2398 2.687-7.8705 3.336-12.3564.09-.6005.036-1.2138-.158-1.7891-.195-.5752-.523-1.0959-.959-1.5188-.839-.8068-1.884-1.6782-3.002-1.3353-1.117.3429-2.751 2.0977-3.683 2.8239" fill="#263238"/><path d="m213.364 70.4144c.113-.0323 4.466-.6414 3.704 3.5984-.763 4.2398-4.841 2.602-4.841 2.4769s1.137-6.0753 1.137-6.0753z" fill="#b78876"/><path d="m213.788 75.1175s.064.0645.177.1412c.163.1077.361.1482.553.1129.476-.0847.98-.7261 1.138-1.4885.081-.3599.081-.7334 0-1.0933-.017-.1395-.067-.2728-.147-.3887-.079-.1159-.185-.2109-.309-.2769-.081-.0381-.173-.0464-.259-.0236-.086.0229-.162.0756-.213.1487-.077.1048-.065.1976-.089.1976s-.077-.0847 0-.2541c.042-.1005.117-.1833.214-.234.132-.0675.286-.0805.427-.0363.169.0672.318.1767.433.318.114.1413.19.3096.221.4888.112.394.127.8091.044 1.2102-.181.8512-.762 1.5693-1.404 1.6379-.12.0127-.241-.0017-.355-.0422s-.217-.1061-.302-.1918c-.141-.1251-.145-.2219-.129-.2259z" fill="#aa6550"/><path d="m214.15 57.6665c1.299-1.5532-1.21-4.4174-3.227-5.3896s-4.922-.3509-7.117.0363c-1.383.2461-2.787.6657-4.167.4034-.916-.2291-1.791-.5949-2.598-1.0851-.809-.4814-1.706-.7956-2.638-.9238-.469-.0577-.945.0136-1.377.2062-.431.1927-.802.4993-1.072.887-.48.8068-.145 2.0695.758 2.3317-.272-.2067-.59-.3443-.928-.401-.337-.0566-.683-.0306-1.008.0758s-.619.2901-.857.5352c-.239.2451-.414.5444-.511.8722-.098.3278-.114.6743-.048 1.0098s.213.6499.427.9164c.214.2664.49.4769.803.6134.314.1365.656.1949.997.1702-.537-.5486-1.578.0767-1.614.8432-.036.7664.569 1.4159 1.21 1.8234 1.658 1.0408 3.764 1.0932 5.693.7463 1.928-.347 3.776-1.065 5.696-1.4604 1.92-.3953 5.143-1.1456 6.878-.2299 1.275.6696 1.977 2.4204 2.788 2.1824.384-.1414.729-.3704 1.01-.6687.28-.2983.486-.6577.603-1.0498.219-.7872.31-1.6044.271-2.4204" fill="#263238"/><path d="m222.451 77.3323c.08-.0182.155-.051.222-.0968.2-.1282.359-.3099.46-.5245.157-.3432.204-.726.137-1.0972-.104-.4882-.372-.9263-.758-1.2425-.459-.3774-.975-.6784-1.529-.8916-.623-.2273-1.222-.5165-1.787-.8632-.593-.4163-1.044-1.0031-1.295-1.6823-.276-.7313-.403-1.5102-.375-2.2913.04-1.6136.488-3.1264.597-4.5505.109-1.424-.073-2.7593-.678-3.6831-.455-.7429-1.177-1.2841-2.017-1.5127-.225-.0568-.458-.0799-.69-.0686-.081.0013-.161.0135-.238.0363.306-.002.611.0359.908.1129.799.2527 1.477.7913 1.904 1.5128.561.8956.754 2.1946.613 3.5863-.141 1.3918-.573 2.9045-.621 4.5626-.026.8097.111 1.6163.403 2.372.27.7176.753 1.3355 1.384 1.771.579.3476 1.191.6368 1.827.8632.54.2001 1.045.4832 1.497.8391.369.2916.63.6975.742 1.1538.074.3474.04.709-.096 1.0367-.125.2806-.339.5118-.61.6576z" fill="#455a64"/><path d="m192.568 54.0312c-.057-.0424-.119-.0764-.186-.1008-.075-.0372-.153-.0682-.234-.0928-.111-.0382-.226-.0666-.343-.0847-.382-.0604-.774-.0329-1.144.0803s-.71.3092-.994.5732c-.287.3498-.502.7532-.632 1.1867-.13.4334-.173.8885-.126 1.3386.054.5592.22 1.1018.487 1.5958.268.4941.631.9295 1.07 1.2805 1.008.8123 2.236 1.3053 3.526 1.416 1.401.1205 2.811.0348 4.187-.2542 2.182-.4274 4.271-1.2358 6.173-2.3881.815-.5041 1.667-.9451 2.549-1.3192.77-.3123 1.59-.4805 2.421-.4962 1.208-.0261 2.404.2513 3.477.8068.388.2172.764.4556 1.126.7141-.323-.3174-.688-.5889-1.085-.8068-1.077-.5997-2.29-.9097-3.522-.8996-.851.0065-1.693.1692-2.485.48-.892.3736-1.754.8146-2.578 1.3192-1.888 1.1284-3.957 1.9214-6.116 2.3438-1.356.2871-2.746.3754-4.127.2622-1.25-.1037-2.442-.5754-3.425-1.3555-.423-.3341-.775-.7492-1.035-1.2209s-.424-.9905-.482-1.5263c-.049-.4292-.013-.864.106-1.2794.119-.4153.319-.8031.588-1.141.269-.2568.592-.4504.945-.5669.353-.1166.727-.153 1.096-.1068.261.0571.517.1382.763.242z" fill="#455a64"/><path d="m194.94 50.502c-.014.3241.036.6479.149.952.315.8406.903 1.551 1.671 2.017.515.3359 1.088.5738 1.69.702.69.139 1.397.1757 2.098.1089 1.48-.1089 3.029-.6172 4.655-1.0368 1.626-.4195 3.252-.6414 4.656-.2662 1.246.3301 2.354 1.0495 3.162 2.0533.556.6668.969 1.4414 1.211 2.2752.161.5931.181.94.209.9359.006-.0832.006-.1668 0-.2501-.022-.2378-.061-.4737-.117-.7059-.215-.8602-.616-1.6629-1.174-2.3519-.816-1.045-1.948-1.799-3.227-2.1502-1.452-.4034-3.122-.1734-4.756.2502-1.634.4235-3.171.9318-4.619 1.0488-.683.0706-1.372.0421-2.046-.0847-.583-.1186-1.14-.3399-1.646-.6535-.748-.4411-1.333-1.1117-1.67-1.9122-.108-.3032-.19-.6149-.246-.9318z" fill="#455a64"/><path d="m196.98 77.2725c.053.4165.163.8237.327 1.2102.086.1911.211.3617.367.5008.157.1391.341.2434.541.3061.216.0447.44.0345.652-.0296.211-.0642.403-.1802.558-.3375.309-.3259.508-.7409.569-1.1861.064-.4034 0-.9076-.404-1.0367-.162-.0403-.333-.0403-.496 0l-2.235.4034" fill="#aa6550"/><path d="m197.378 78.966c.356.1367.733.2078 1.114.2097.394-.0231.765-.1929 1.04-.476.163-.1731.287-.3788.364-.6034s.106-.4631.084-.6996c-.012-.1212-.039-.2405-.08-.355-.053-.1089-.037-.1008-.13-.1129-.092-.0122-.238 0-.359.0201l-.375.0283c-.484.0363-.92.0645-1.287.0847-.402.0559-.81.0478-1.21-.0242.377-.1377.773-.2193 1.174-.2421.363-.0524.807-.1049 1.279-.1613l.371-.0404c.134-.0196.268-.0317.403-.0363.107.0029.21.0396.295.1049.075.0666.132.1513.165.2461.055.1453.09.2972.105.4518.027.2904-.011.5831-.111.8572-.1.274-.259.5227-.466.7282-.344.3274-.804.5057-1.279.4962-.31.0012-.614-.084-.879-.2461-.137-.113-.23-.2138-.218-.2299z" fill="#263238"/><path d="m195.4 85.5212s4.066 1.5411 8.024.4034c0 0-2.986 2.5052-8.432 1.5451z" fill="#aa6550"/><path d="m201.582 143.358c-.196-.129-.382-.272-.556-.428-.174-.141-.404-.315-.65-.5-.246-.186-.544-.404-.887-.625-.343-.222-.698-.464-1.114-.694-.415-.23-.855-.472-1.327-.714-2.07-1.019-4.295-1.684-6.584-1.969-.528-.056-1.028-.121-1.5-.133s-.912-.032-1.312-.028c-.399.004-.766.024-1.085.036-.318.012-.593.036-.807.061-.23.035-.464.051-.698.048.227-.058.458-.101.69-.129.268-.046.537-.078.807-.097.319-.024.682-.069 1.089-.069.408 0 .848-.024 1.324 0 .476.025.984.065 1.516.113 1.155.144 2.296.379 3.413.702 1.109.341 2.189.771 3.228 1.287.472.25.928.48 1.327.738.399.259.779.489 1.109.723.331.234.622.459.876.653s.464.379.629.533c.184.149.356.314.512.492z" fill="#fafafa"/><path d="m177.892 122.64 3.308-14.333c1.267-5.39 2.768-10.5696 5.289-11.1827v1.666l-1.081 40.9497s-6.741 7.665-15.33 3.413c-2.687-1.335-7.588-10.714-7.588-10.714s-11.405-20.348-10.929-21.272 7.443-9.904 8.153-10.352z" fill="#407bff"/><path d="m211.942 93.0659c6.575 1.2586 13.978 5.095 17.387 14.9261 1.242 3.59 10.295 30.058 10.295 30.058l-15.439-.323-2.493-5.45 1.21 8.855 1.045 12.627-38.986.657.274-19.025.375-37.8392s.436-.5729 7.161-4.2802c4.171-2.3034 19.171-.2057 19.171-.2057z" fill="#407bff"/><path d="m215.797 118.375c.642 7.988 1.376 10.457 2.017 18.444.016.756.152 1.505.404 2.219.135.355.351.673.631.928.28.256.617.442.983.544 1.137.23 2.614 1.053 2.932-.06l-1.077-7.693c-.231-1.119-.589-2.209-1.065-3.248-2.392-5.313-3.275-5.623-4.841-11.134" fill="#000" opacity=".2"/><path d="m192.75 97.3656.129-.831 1.247-7.9713c.036-.2317.158-.4412.342-.5864s.416-.2153.65-.1962l15.35 1.2828c.464.0381.894.2579 1.196.6116.302.3536.452.8124.418 1.2764l-.343 4.6311-4.793 6.2524-6.902 1.078" fill="#407bff"/><path d="m185.05 112.352c.061 0 .105 6.245.105 13.946s-.044 13.946-.105 13.946c-.06 0-.105-6.245-.105-13.946s.049-13.946.105-13.946z" fill="#263238"/><path d="m224.511 139.01s0-.028-.048-.089c-.048-.06-.077-.161-.129-.274l-.468-1.061-1.682-3.917-5.483-12.953c-1.065-2.534-2.077-4.946-2.997-7.145-.465-1.03-.799-2.114-.993-3.227-.17-.973-.259-1.958-.266-2.945-.051-1.431.157-2.859.613-4.216l.125-.334.142-.283c.066-.15.147-.293.242-.427l.169-.25c.02-.029.041-.056.065-.081-.266.446-.489.916-.666 1.404-.422 1.353-.605 2.77-.541 4.187.007 2.104.445 4.184 1.287 6.112l3.014 7.136 5.426 12.978 1.613 3.941.432 1.077.109.282c.015.027.027.056.036.085z" fill="#263238"/><path d="m216.709 94.4736c-.142.1433-.291.278-.448.4034-.454.3459-.948.6345-1.473.8593-.83.3466-1.7.5904-2.59.7261-1.176.1827-2.361.2999-3.55.351-1.323.0565-2.767.0323-4.316.0605-1.646-.0028-3.285.1978-4.882.5971-1.768.4179-3.369 1.3616-4.591 2.707-.608.732-1.044 1.593-1.274 2.517-.247.948-.23 1.945.048 2.884.154.464.382.9.674 1.291.294.38.665.694 1.089.92.411.225.88.324 1.347.283.457-.047.88-.263 1.186-.606.273-.36.467-.773.57-1.213s.112-.896.027-1.34c-.067-.438-.203-.863-.403-1.259-.199-.386-.438-.749-.714-1.085-1.078-1.243-2.531-2.102-4.139-2.449-1.394-.3284-2.846-.3118-4.232.049-1.14.295-2.228.761-3.227 1.383-.761.475-1.479 1.015-2.146 1.614-.553.484-.944.904-1.211 1.178l-.298.323c-.033.038-.069.073-.109.105.475-.6 1.001-1.158 1.573-1.666.661-.611 1.376-1.16 2.138-1.638 1.009-.642 2.112-1.124 3.268-1.428 1.408-.3781 2.888-.403 4.309-.073 1.649.348 3.141 1.225 4.248 2.497.281.337.527.702.734 1.089.203.416.339.861.403 1.319.071.468.062.944-.024 1.408-.087.484-.3.936-.617 1.311-.339.381-.808.621-1.315.674-.509.048-1.021-.057-1.469-.302-.45-.241-.845-.573-1.158-.977-.308-.41-.547-.868-.71-1.355-.29-.976-.306-2.013-.048-2.997.235-.957.687-1.847 1.319-2.602 1.252-1.373 2.888-2.3361 4.696-2.7637 1.614-.3947 3.272-.5871 4.934-.5729 1.553-.0242 2.997 0 4.312-.0363 1.184-.0413 2.366-.1477 3.538-.3187.885-.127 1.751-.3571 2.582-.6858.521-.2117 1.017-.4824 1.477-.8068.161-.1089.27-.2098.35-.2662.037-.0402.078-.0767.122-.109z" fill="#fafafa"/><path d="m230.045 111.262c-.057.016-.115.026-.174.028-.113 0-.278.029-.496.037-.609.02-1.22.005-1.827-.045-.771-.056-1.683-.173-2.691-.314-1.009-.141-2.114-.291-3.284-.351-1.094-.06-2.191.023-3.264.246-.877.178-1.719.498-2.493.948-.701.428-1.323.974-1.839 1.613.021-.053.051-.104.088-.149.085-.142.183-.277.291-.403.391-.478.858-.887 1.383-1.21.78-.476 1.633-.817 2.526-1.009 1.09-.238 2.206-.327 3.32-.266 1.182.06 2.291.222 3.3.371s1.912.282 2.675.355c.762.073 1.387.105 1.815.109.224 0 .448.013.67.04z" fill="#fafafa"/><path d="m220.348 129.348c-.759-.176-1.539-.243-2.316-.198-.912.062-1.814.223-2.691.48-1.028.279-2.178.686-3.469 1.086-1.402.475-2.869.729-4.349.754-1.704-.001-3.39-.351-4.954-1.029-1.738-.734-3.283-1.858-4.518-3.284-.668-.745-1.213-1.592-1.614-2.509-.426-.949-.587-1.996-.464-3.029.141-1.042.649-1.999 1.432-2.699.39-.34.856-.578 1.36-.694.492-.104 1.002-.09 1.488.041s.934.376 1.307.713c.365.335.618.772.727 1.255.104.472.066.965-.109 1.416-.17.433-.427.827-.755 1.158-.625.626-1.382 1.107-2.214 1.408-.393.149-.798.261-1.211.334-.201.037-.403.081-.601.109l-.601.073c-1.474.146-2.962.041-4.401-.311-1.187-.282-2.331-.722-3.401-1.307-.809-.437-1.568-.962-2.263-1.565l-.404-.351-.33-.335c-.179-.169-.346-.349-.501-.54l-.29-.347c-.033-.038-.063-.078-.089-.121.039.033.076.07.109.109l.303.331c.16.185.331.36.512.524l.335.327.403.343c.698.586 1.457 1.096 2.263 1.52 1.065.569 2.201.995 3.377 1.267 1.425.339 2.896.435 4.353.283l.589-.073c.198-.032.403-.077.597-.113.403-.073.799-.184 1.182-.331.806-.293 1.537-.76 2.142-1.367.309-.313.55-.685.71-1.094.158-.415.193-.868.101-1.303-.12-.444-.358-.847-.69-1.166-.332-.318-.745-.54-1.194-.641-.46-.133-.945-.146-1.412-.04-.466.107-.898.33-1.255.649-.747.666-1.229 1.578-1.359 2.57-.116.994.038 2.002.444 2.917.39.895.918 1.724 1.565 2.456 1.214 1.4 2.732 2.504 4.438 3.228 1.538.671 3.198 1.023 4.877 1.032 1.465-.018 2.918-.263 4.308-.726 1.287-.403 2.421-.782 3.482-1.053.886-.249 1.796-.399 2.715-.447.334-.021.67-.021 1.004 0 .287.044.533.064.727.108l.439.109c.058.017.114.041.166.073z" fill="#fafafa"/><path d="m184.903 125.045c-.037 0-.222-.404-.613-1.081-1.024-1.72-2.518-3.113-4.305-4.014-.686-.347-1.137-.501-1.125-.537.113.01.224.036.33.077.294.087.581.195.86.322.924.422 1.774.99 2.517 1.683.744.692 1.37 1.501 1.852 2.396.152.268.287.545.403.831.041.103.068.212.081.323z" fill="#fafafa"/><path d="m169.258 142.309s-.029-.033-.065-.101c-.036-.069-.097-.178-.165-.303-.146-.266-.355-.665-.614-1.182-.749-1.458-1.367-2.979-1.847-4.546-.321-1.089-.515-2.211-.577-3.344-.032-.633-.006-1.268.077-1.896.1-.666.259-1.32.476-1.957.471-1.377 1.286-2.61 2.368-3.582.578-.53 1.257-.938 1.997-1.198s1.525-.367 2.307-.315c.813.061 1.573.43 2.122 1.033.262.298.452.651.556 1.034.104.382.119.783.045 1.172-.087.382-.286.729-.573.997-.279.256-.617.44-.984.536-.71.185-1.464.094-2.11-.254-.599-.323-1.123-.77-1.537-1.311-.397-.501-.724-1.053-.972-1.642-.437-1.056-.618-2.201-.529-3.34.082-.94.357-1.854.807-2.683.334-.625.761-1.197 1.267-1.694.316-.315.663-.598 1.037-.843.125-.085.23-.137.298-.178l.105-.052s-.129.093-.379.266c-.36.257-.696.546-1.005.863-.483.502-.891 1.072-1.21 1.691-.429.819-.685 1.716-.754 2.638-.078 1.117.11 2.237.548 3.268.245.571.566 1.107.953 1.593.401.518.907.945 1.484 1.255.603.324 1.307.408 1.969.234.339-.08.651-.251.899-.496s.424-.554.509-.892c.064-.356.047-.723-.049-1.072-.097-.349-.27-.672-.508-.945-.515-.562-1.225-.905-1.985-.96-.754-.05-1.51.053-2.222.304-.713.25-1.368.642-1.925 1.152-1.056.95-1.854 2.152-2.32 3.494-.217.623-.378 1.264-.48 1.916-.083.617-.112 1.241-.084 1.864.056 1.121.24 2.232.548 3.312.465 1.563 1.059 3.085 1.775 4.55l.577 1.21c.061.129.109.234.149.315.041.081.021.089.021.089z" fill="#fafafa"/><path d="m164.265 106.696s.021.057.037.166c.028.163.048.327.06.492.053.602.053 1.209 0 1.811-.163 2.007-.849 3.935-1.99 5.594-1.141 1.658-2.697 2.989-4.513 3.858-.543.265-1.109.483-1.69.649-.202.065-.367.093-.476.121-.109.029-.17.033-.17.025.203-.087.41-.162.622-.222.566-.196 1.117-.432 1.65-.706 1.767-.893 3.281-2.216 4.404-3.847 1.122-1.631 1.816-3.518 2.018-5.488.064-.595.087-1.193.069-1.791-.021-.22-.028-.441-.021-.662z" fill="#fafafa"/><path d="m233.577 124.189c-.6.376-1.128.857-1.557 1.42-.404.52-.807 1.21-1.263 1.936-.5.813-1.077 1.576-1.723 2.279-1.181 1.276-2.581 2.33-4.135 3.111-.467.236-.95.443-1.444.617-.18.071-.366.125-.557.161.167-.095.343-.175.525-.238.339-.149.831-.359 1.408-.673 1.507-.811 2.87-1.864 4.034-3.119.639-.692 1.213-1.441 1.715-2.239.401-.666.838-1.31 1.311-1.928.328-.414.718-.775 1.157-1.069.119-.079.245-.148.376-.206.105-.04.153-.06.153-.052z" fill="#fafafa"/><path d="m211.8 93.5489c-.059.0254-.121.0417-.185.0484l-.537.0969c-.468.0766-1.146.1775-1.981.2904-1.678.2259-4.002.4922-6.579.6818-1.207.1103-2.419.1534-3.631.1291-1-.0244-1.99-.1943-2.941-.5043-.642-.208-1.247-.5142-1.795-.9077-.15-.1053-.293-.2198-.428-.3429-.089-.0887-.133-.1331-.129-.1412.004-.008.21.1614.601.4035.557.3582 1.162.6379 1.795.831.942.2866 1.92.4388 2.905.4518 1.212.0129 2.424-.0356 3.631-.1452 2.569-.1896 4.893-.4276 6.571-.6172l1.989-.226c.237-.0328.475-.049.714-.0484z" fill="#263238"/><path d="m239.428 140.907c.304 1.56.26 3.169-.127 4.711s-1.109 2.98-2.114 4.211c-1.006 1.232-2.269 2.228-3.702 2.917s-3 1.054-4.59 1.07l-30.559-.339.807-9.896 26.165-3.929" fill="#b78876"/><path d="m201.032 144.012c-.142.045-1.905-.746-3.486-1.476-1.677-.777-3.519-1.134-5.365-1.041l-7.286.371s.448 1.21 1.21 1.614c.763.403 5.333.532 5.333.532l-.234.238c-.955.985-2.259 1.555-3.63 1.59h-.698c-.517-.041-1.027-.141-1.521-.299l-1.795-.726c-.545-.242-1.118-.206-1.356.343s-.056 1.178 1.428 1.924c.827.404 3.901 1.481 3.901 1.481.021.437.082.872.182 1.299.133.448 1.339.895 1.339.895.314.664.672 1.306 1.073 1.921.141.161 1.235.504 2.401.831 1.879.526 3.869.51 5.74-.045l2.776-.831v-8.471" fill="#b78876"/><path d="m191.05 149.543c-1.284-.033-2.542-.364-3.675-.968 0-.049.807.258 1.827.52 1.021.262 1.852.387 1.848.448z" fill="#aa6550"/><path d="m190.796 151.24c-.342.071-.697.045-1.025-.076-.342-.063-.66-.22-.919-.452.329.066.653.159.968.278.331.058.658.142.976.25z" fill="#aa6550"/><path d="m192.121 143.354c-.159.225-.347.427-.56.601-.483.462-1.017.868-1.59 1.211-.577.337-1.205.579-1.859.718-.263.07-.535.1-.807.088.901-.207 1.772-.531 2.59-.964.56-.338 1.093-.719 1.593-1.141.196-.19.408-.361.633-.513z" fill="#aa6550"/><path d="m201.758 142.685-.742 11.191h28.783c1.955.001 3.873-.53 5.547-1.537 1.896-1.139 3.395-2.835 4.293-4.856s1.151-4.269.726-6.44c-.414-2.125-1.036-4.204-1.856-6.208l-14.474 2.384.464 1.799z" fill="#407bff"/><path d="m231.165 138.078c-.096.028-.193.049-.291.065l-.843.153-3.11.516-10.231 1.614-10.243 1.569-3.106.452-.847.113c-.099.014-.199.022-.299.024.096-.033.194-.056.295-.068l.839-.15 3.098-.52 10.231-1.614 10.263-1.581 3.106-.452.847-.113c.097-.013.194-.015.291-.008z" fill="#263238"/><path d="m216.43 153.884c-.053 0 .173-.807.202-2.126.006-.358-.009-.717-.045-1.073-.034-.407-.094-.811-.177-1.21-.2-.921-.515-1.813-.936-2.655-.432-.838-.96-1.623-1.574-2.34l-.403-.472c-.137-.153-.286-.286-.424-.423-.27-.279-.556-.5-.806-.714-1.029-.807-1.759-1.21-1.735-1.247.178.072.35.159.512.262.201.105.395.222.581.351.214.154.48.303.734.521.291.217.568.452.831.702.142.137.299.266.44.403l.44.476c.632.721 1.174 1.516 1.613 2.368.428.86.742 1.771.936 2.711.083.411.137.828.162 1.247.026.362.026.726 0 1.089-.008.301-.035.602-.081.899-.022.225-.061.447-.117.666-.035.192-.086.381-.153.565z" fill="#fafafa"/><path d="m233.97 153.04c-.45-.003-.897-.055-1.335-.157-.516-.119-1.017-.296-1.493-.529-.631-.313-1.2-.737-1.682-1.25-.585-.63-1.01-1.391-1.239-2.219-.127-.46-.199-.934-.214-1.412-.029-.505.012-1.011.122-1.505.107-.525.31-1.027.597-1.48.299-.481.715-.878 1.21-1.154.511-.298 1.099-.438 1.69-.403.304.021.6.103.871.242.271.138.512.33.706.564.202.231.354.501.445.794.092.292.122.6.088.905-.05.295-.164.576-.336.822-.172.245-.396.45-.656.598-.977.511-2.101.665-3.179.436-1.531-.239-2.929-1.005-3.954-2.166s-1.611-2.644-1.658-4.192c-.026-.45.012-.901.113-1.34-.037.445-.048.89-.032 1.336.075 1.214.472 2.386 1.15 3.396.505.742 1.156 1.373 1.913 1.853.758.481 1.606.802 2.492.943 1.03.221 2.105.079 3.042-.403.234-.133.435-.315.59-.535s.259-.471.305-.736c.024-.276-.007-.554-.091-.818s-.219-.509-.398-.721-.397-.386-.644-.513c-.246-.127-.515-.204-.791-.227-.547-.038-1.093.087-1.569.359-.449.268-.834.629-1.13 1.059s-.495.919-.585 1.434c-.109.478-.151.97-.125 1.46.011.462.078.921.198 1.368.212.806.617 1.549 1.178 2.166.461.506 1.007.928 1.613 1.246.465.238.955.423 1.461.553.847.19 1.331.198 1.327.226z" fill="#fafafa"/><path d="m119.792 31.1309h-72.0878c-4.2134 0-8.2542 1.6737-11.2336 4.6529-2.9793 2.9793-4.6531 7.02-4.6531 11.2333v25.6891h-15.5519l15.5519 15.5513v17.4635c0 4.213 1.6738 8.254 4.6531 11.233 2.9794 2.98 7.0202 4.653 11.2336 4.653h72.0878c4.213 0 8.254-1.673 11.233-4.653 2.98-2.979 4.653-7.02 4.653-11.233v-58.7039c0-4.2133-1.673-8.254-4.653-11.2333-2.979-2.9792-7.02-4.6529-11.233-4.6529z" fill="#407bff"/><path d="m90.3603 33.8462c-.4559 1.1819.3267 2.4688 1.2102 3.3805s1.9405 1.775 2.2188 3.0094c.23 1.0368-.1533 2.1139-.0605 3.1708s.6777 2.0534 1.0085 3.0861c.6011 1.8718.3591 3.9171-.1775 5.8091-.3869 1.5722-1.1263 3.0358-2.1623 4.2801-.5218.6163-1.1685 1.1148-1.8973 1.4625s-1.5232.5368-2.3305.5546c-.2283.0143-.4571-.0184-.6722-.0961s-.412-.1988-.5784-.3558c-.2263-.3263-.3512-.7122-.359-1.1093-.9239-8.1227-.9239-16.3239 0-24.4465" fill="#263238"/><path d="m89.4894 60.0237c3.5097-.1533 6.7532 3.2071 6.4748 6.7087 3.5541.8673 6.0518 4.7763 5.3698 8.3666-.23 1.1861-.759 2.3156-.831 3.5178-.081 1.3151.403 2.5939.641 3.8848.457 2.3527.213 4.7878-.702 7.0031-.5525 1.3353-1.5853 2.715-3.0295 2.7553-.4893-.0206-.966-.1613-1.3882-.4096-.4221-.2483-.7766-.5967-1.0323-1.0144-.5028-.8456-.8345-1.7818-.9763-2.7553-.6253-3.1546-.8068-6.394-1.6782-9.4882-.8714-3.0941-2.5657-6.1439-5.3614-7.7131-1.5451-.8714-3.4008-1.2828-4.6313-2.5617-.6189-.6979-1.0316-1.5542-1.1919-2.4732-.1602-.919-.0618-1.8644.2843-2.7307.3626-.8585.9021-1.6309 1.5833-2.2669s1.4888-1.1213 2.3702-1.4243" fill="#263238"/><path d="m65.1993 36.7384c-.0403-1.5007 1.3434-2.6584 2.7392-3.2272 1.3959-.5689 2.949-.7585 4.1915-1.6137 1.1054-.7422 1.8437-1.9 2.7756-2.8238 1.1507-1.1669 2.5912-2.0066 4.1737-2.4328 1.5825-.4261 3.2499-.4235 4.8311.0077 1.5811.4312 3.019 1.2754 4.166 2.446s1.9618 2.6253 2.3607 4.2148c.5366 2.1341.1695 4.6594-1.5128 6.0794-1.9525 1.6459-4.841 1.2788-7.3543.7665-2.5133-.5124-5.3372-1.0166-7.4269.4558-1.2587.8835-1.9848 2.3277-2.7553 3.663-.7706 1.3352-1.7347 2.6947-3.1911 3.199-1.4563.5042-3.4371-.3671-3.4936-1.9041" fill="#263238"/><path d="m71.1302 37.045c-.6246.0675-1.2012.3669-1.6158.8389-.4145.4721-.6369 1.0825-.6232 1.7106l1.4967 33.8863c.0645 4.0018 5.9141 6.2487 10.1984 6.1479 4.3287-.1009 4.4658-2.2228 4.5223-6.031.0888-6.3577.0807-8.7458.0847-8.7095.0041.0363 5.4663-.9198 6.5838-8.0682.5527-3.5459.3631-9.3631.0524-14.1193-.2783-4.2801-3.1264-9.5244-7.3906-9.0645z" fill="#ffbe9d"/><path d="m90.5735 47.1946c.0023.238-.0882.4677-.2524.6401-.1642.1725-.3891.2742-.627.2837-.1151.0099-.2311-.0032-.3412-.0385-.11-.0354-.2119-.0922-.2997-.1673-.0879-.0751-.1599-.1669-.212-.2701-.052-.1032-.083-.2157-.0911-.331-.0033-.2384.0869-.4686.2513-.6412.1644-.1727.3899-.2741.6281-.2826.1152-.0099.2311.0032.3412.0385.11.0354.2119.0922.2998.1673.0878.0751.1599.1669.2119.2701s.083.2157.0911.331z" fill="#263238"/><path d="m90.5483 45.7433c-.1129.121-.8068-.4034-1.7912-.4034-.9843 0-1.7064.5002-1.8153.3792-.0525-.0524.0645-.2703.3792-.5002.4247-.2958.9307-.4522 1.4482-.4478.5123-.003 1.0123.1566 1.4281.4558.3026.2381.4075.464.351.5164z" fill="#263238"/><path d="m81.1204 47.1946c.0023.238-.0883.4677-.2524.6401-.1642.1725-.3891.2742-.627.2837-.1152.0099-.2311-.0032-.3412-.0385-.11-.0354-.2119-.0922-.2998-.1673-.0878-.0751-.1599-.1669-.2119-.2701s-.083-.2157-.0911-.331c-.0034-.2384.0869-.4686.2512-.6412.1644-.1727.3899-.2741.6282-.2826.1152-.0099.2311.0032.3412.0385.11.0354.2119.0922.2997.1673.0879.0751.1599.1669.212.2701.052.1032.083.2157.0911.331z" fill="#263238"/><path d="m80.8961 45.9482c-.113.121-.8068-.4034-1.7912-.4034-.9843 0-1.7064.5002-1.8113.3792-.0525-.0524.0605-.2703.3752-.5002.4245-.2965.9304-.4543 1.4482-.4518.5128-.0019 1.0128.1592 1.4281.4598.2824.2461.3873.464.351.5164z" fill="#263238"/><path d="m84.4708 53.2421c0-.0565.6052-.1613 1.6137-.2904.2501-.0283.4881-.0807.5325-.2501.0185-.2601-.0404-.5198-.1694-.7464l-.7504-1.9121c-1.0368-2.723-1.7911-4.9619-1.6782-5.0023.113-.0403 1.0408 2.1341 2.0776 4.8409l.7181 1.9243c.1564.303.2034.6507.1331.9843-.0354.088-.09.1669-.1597.2312-.0698.0642-.1531.112-.2437.1399-.1314.0363-.2671.0553-.4034.0565-1.0489.0726-1.6661.0807-1.6702.0242z" fill="#263238"/><path d="m85.186 64.8924c-3.3597.058-6.6695-.8177-9.561-2.5294 0 0 2.3277 4.8974 9.4682 4.2116z" fill="#eb996e"/><path d="m84.0562 55.614c-.1899-.2386-.4383-.4242-.721-.5387s-.5902-.154-.8927-.1148c-.2172.0195-.4282.0828-.6203.1861s-.3612.2445-.4972.415c-.1311.1645-.2085.3655-.2215.5755s.039.419.1489.5984c.1579.1772.3655.3027.5958.3603.2302.0576.4725.0445.6952-.0375.4644-.1651.891-.4216 1.2546-.7544.1117-.078.2075-.1766.2824-.2905.0367-.0541.0564-.1181.0564-.1835 0-.0655-.0197-.1294-.0564-.1836" fill="#eb996e"/><path d="m81.565 53.9348c.1614 0 .1654 1.061 1.0812 1.8153.9158.7544 2.0534.6374 2.0615.8069 0 .0685-.2542.2097-.7343.2218-.6261.0114-1.2361-.1986-1.7226-.593-.4655-.3808-.7649-.9275-.835-1.5249-.0444-.4719.0766-.7261.1492-.7261z" fill="#263238"/><path d="m81.3058 44.2214c-.0968.2703-1.0811.1452-2.2349.2864s-2.0897.4599-2.243.2179c-.0686-.113.0928-.3671.468-.6253.5009-.322 1.0685-.5256 1.6599-.5955.5913-.0699 1.1908-.0042 1.753.1921.4397.1896.6535.3994.597.5244z" fill="#263238"/><path d="m90.1742 42.8943c-.1734.2219-.8512 0-1.6701 0-.819 0-1.5048.1533-1.6621-.0807-.0726-.1129.0363-.3348.3389-.5486.4048-.2533.8756-.3812 1.3529-.3675.4774.0136.9401.1682 1.3298.4441.3106.2139.3953.4438.3106.5527z" fill="#263238"/><path d="m66.1278 60.5155c.9836.1989 2.0005.161 2.9666-.1105.9661-.2714 1.8539-.7687 2.59-1.4508s1.2994-1.5295 1.6436-2.4721c.3441-.9427.4592-1.9537.3356-2.9496-.2218-1.7548-1.1658-3.5338-.5567-5.1959.8069-2.1905 3.8769-2.8642 4.6918-5.0547.472-1.2707.0484-2.7593.5849-4.0058.5043-1.1699 1.7387-1.8436 2.9409-2.2793s2.4851-.7342 3.4936-1.5168c1.0086-.7826 1.6339-2.2591.9844-3.3604-5.328.6393-10.5609 1.9109-15.5881 3.788-1.1659.4357-2.3882.9601-3.0781 1.9929-.7261 1.0972-.6898 2.5092-.6293 3.8243.2985 6.4061-.6777 12.4048-.3792 18.8109" fill="#263238"/><path d="m64.4296 58.5064c-.0406-.0061-.08-.0184-.117-.0363-.1151-.0402-.2249-.0944-.3267-.1614-.393-.2542-.7019-.6192-.8875-1.0489-.3054-.6791-.3873-1.4376-.234-2.1663.2429-.9466.6843-1.8308 1.2949-2.5939.6253-.8713 1.4201-1.7548 1.9607-2.8803.2882-.5719.4492-1.1995.4719-1.8395-.0232-.6795-.1596-1.3502-.4034-1.9848-.2719-.6861-.4154-1.4163-.4236-2.1542.0391-.7896.2709-1.5576.6753-2.2369s.9689-1.2493 1.6444-1.66c.7244-.3953 1.5279-.6241 2.3519-.6697.7974-.0391 1.5871-.1746 2.3519-.4034.7181-.2719 1.3083-.803 1.6541-1.4886.3295-.6744.5916-1.3798.7826-2.1058.2041-.6965.4743-1.3719.8068-2.017.6066-1.2231 1.5303-2.261 2.6747-3.0054 1.0105-.6353 2.1927-.9425 3.3847-.8794.9872.051 1.9276.4366 2.6666 1.0932.5508.4952.9613 1.127 1.19 1.8315.1487.441.205.9079.1654 1.3716-.0082.1613-.0353.321-.0807.476 0 0 .0283-.1654.0404-.4801.0194-.4565-.0491-.9126-.2017-1.3433-.2778-.7928-.7875-1.4837-1.4631-1.983-.6755-.4992-1.4856-.7838-2.325-.8167-1.159-.051-2.3055.256-3.2838.8795-1.1137.7318-2.0108 1.7487-2.598 2.9448-.3259.6453-.588 1.3209-.7827 2.0171-.197.7391-.4673 1.4567-.8068 2.1421-.187.3547-.431.6763-.7221.952-.301.2787-.655.4941-1.0408.6334-.786.2422-1.5991.3859-2.4205.4276-.7942.0418-1.5689.261-2.2673.6414-.6457.3917-1.1858.9354-1.5732 1.5837s-.6104 1.3815-.6496 2.1357c.0072.7152.1439 1.4232.4034 2.0897.2568.654.4 1.3471.4236 2.0493-.0272.6659-.1978 1.3182-.5002 1.9121-.5648 1.1538-1.3676 2.0171-1.9969 2.8925-.6074.7415-1.0502 1.6037-1.299 2.5293-.1608.7044-.0944 1.4415.1896 2.1058.1745.4233.4654.7884.8391 1.0529.2703.1372.4357.1775.4316.1937z" fill="#455a64"/><path d="m85.1641 27.3999c.0979.0072.193.0362.2783.0847.2421.1027.4689.2385.6737.4034.7029.5454 1.1685 1.3406 1.3 2.2205.1314.8798-.0813 1.7764-.594 2.5034-.149.2167-.3253.4133-.5244.585-.1453.121-.234.1734-.2421.1613.2275-.2577.4416-.527.6414-.8068.4547-.7089.637-1.5585.5131-2.3915s-.5455-1.5928-1.1868-2.1387c-.2742-.2235-.5611-.4309-.8592-.6213z" fill="#455a64"/><path d="m100.969 76.3609c.085-.2481.153-.5014.205-.7584.095-.7042-.028-1.4205-.351-2.0534-.497-.9289-1.2891-1.6667-2.2508-2.0977-.5627-.2662-1.1506-.4757-1.7549-.6253-.6293-.1613-1.2949-.2945-1.9606-.5123-.6698-.1825-1.2874-.5197-1.8033-.9843-.4619-.4626-.7608-1.063-.8512-1.7105-.1089-.601-.1452-1.1699-.2783-1.6781-.1193-.4703-.3411-.9084-.6495-1.2829-.4512-.5486-1.0505-.9561-1.7267-1.1739-.48-.1452-.7665-.1452-.7665-.1694.0685-.0068.1374-.0068.2058 0 .1973.0136.3931.0446.585.0927.7075.1952 1.34.5986 1.8153 1.1578.3322.3867.5735.843.706 1.3353.1452.5285.1896 1.1053.3026 1.6863.0829.6123.3667 1.1798.8068 1.6136.4947.4392 1.0843.7581 1.7226.9319.6495.2097 1.3151.3469 1.9485.5123.6124.1498 1.2073.3634 1.775.6374.9936.4549 1.8042 1.2326 2.2992 2.2066.323.6618.428 1.409.299 2.134-.039.1934-.099.3816-.182.5608-.026.0623-.058.1218-.096.1775z" fill="#455a64"/><path d="m69.9393 63.7269c-3.6307-.9682-6.737-4.5061-8.0038-8.0279-1.2667-3.5217-1.2667-7.3662-.9399-11.0937.2339-2.6988.71-5.5549 2.5011-7.5881 2.7029-3.0659 5.6479-4.6311 9.7143-4.502" fill="#263238"/><path d="m91.0501 71.5923-3.3686-.8472c.3672-.2524.635-.6249.7572-1.0534.1222-.4286.0913-.8863-.0875-1.2944-.2132-.5232-.566-.9778-1.0199-1.3142-.4538-.3365-.9913-.5419-1.5539-.5939l-15.3541-1.7347c-.2684-.0358-.5411.0195-.7744.157s-.4137.3493-.5125.6014c-.6804 1.732-.7033 3.1574-.0686 4.2761h-.0726l-2.9611.589-5.0185 44.27 32.8705-1.537z" fill="#f5f5f5"/><path d="m86.2054 70.9158c-.2017.0589-.4083.0994-.6173.121-.4034.0646-.9803.1331-1.6984.2058-3.758.3491-7.5466.1603-11.2513-.5608-.71-.1412-1.2788-.2703-1.6701-.3751-.2056-.0399-.4069-.0993-.6011-.1775.2083.0152.4149.049.6172.1008.4034.0766.9723.1856 1.6823.3066 3.7009.6368 7.4652.8237 11.2109.5567.7181-.0484 1.2991-.1009 1.7025-.1412.2071-.0285.4162-.0406.6253-.0363z" fill="#263238"/><path d="m71.3438 77.9502c.3233-.6715.7082-1.3116 1.1497-1.9121.3853-.6386.8297-1.2396 1.3272-1.7952-.3239.6721-.7102 1.3123-1.1537 1.9122-.3833.6389-.8263 1.24-1.3232 1.7951z" fill="#e0e0e0"/><path d="m81.9428 78.7012c-1.0253-1.0528-1.948-2.201-2.7553-3.429.5375.503 1.0264 1.0554 1.4604 1.65.4881.5497.9218 1.1455 1.2949 1.779z" fill="#e0e0e0"/><path d="m77.0092 84.3287c-.2319-.7176-.398-1.4548-.4962-2.2026-.1679-.7352-.2638-1.4851-.2864-2.2389.2325.7175.3986 1.4548.4962 2.2026.1633.7361.2592 1.4855.2864 2.2389z" fill="#e0e0e0"/><path d="m85.0996 84.6758c-.5695.7083-1.1926 1.3719-1.8638 1.9847-.6233.6637-1.2977 1.2774-2.017 1.8356.5694-.7085 1.1925-1.372 1.8637-1.9848.6259-.661 1.3002-1.2746 2.0171-1.8355z" fill="#e0e0e0"/><path d="m74.2711 92.2188c-1.4866-.8882-2.6974-2.1716-3.4977-3.7073.0565-.0363.6737.9319 1.646 1.9525.9722 1.0206 1.892 1.7024 1.8517 1.7548z" fill="#e0e0e0"/><path d="m77.7438 98.0444c0 .0605-.9198.355-1.9848.9238-1.0651.5688-1.8437 1.1658-1.884 1.1138.5078-.544 1.1142-.9862 1.7871-1.3034.6399-.377 1.3469-.6263 2.0817-.7342z" fill="#e0e0e0"/><path d="m83.4032 98.4202c-.2404-.2037-.4558-.4352-.6414-.6899-.3711-.4437-.8673-1.0771-1.3837-1.7992s-.9521-1.3958-1.2547-1.896c-.18-.2586-.329-.5375-.4437-.831.2146.2302.4052.4816.5688.7503l1.303 1.8557 1.3273 1.8315c.2018.2402.3776.5012.5244.7786z" fill="#e0e0e0"/><path d="m83.9718 103.39c-.7841.275-1.5956.464-2.4205.565-.8159.17-1.6476.252-2.481.246.8058-.203 1.6237-.354 2.4488-.452.8097-.168 1.6288-.288 2.4527-.359z" fill="#e0e0e0"/><path d="m74.7942 70.2893c-.0282 0 .1654-.2421.3308-.6697.2049-.5595.2659-1.1615.1775-1.7508-.1001-.5938-.2749-1.1726-.5204-1.7225-.1188-.2251-.2109-.4634-.2743-.71.1685.1934.3047.4127.4034.6495.2935.5466.4939 1.1383.5931 1.7508.0975.6254.0121 1.2656-.2461 1.8435-.0902.245-.2518.4572-.464.6092z" fill="#e0e0e0"/><path d="m80.9425 66.9731c.2876.3961.4932.8456.6048 1.3222.1115.4766.1267.9707.0447 1.4533-.0605 0-.0686-.6414-.2501-1.4039-.1816-.7624-.4438-1.3393-.3994-1.3716z" fill="#e0e0e0"/><path d="m108.644 98.5158 15.29-26.8549 1.843-4.6594s4.769-10.2465 5.099-11.2954c.384-1.2102 1.057-1.307 1.493-1.1376.678.2703.896 1.2788.597 2.3236-.105.3591-1.956 5.9906-1.956 5.9906.497-.4292 1.026-.8215 1.581-1.1739 1.174-.8068 3.324-.7665 5.317-.0565s2.485 1.0852 2.247 1.8678c-.053.1469-.138.2801-.249.3897-.111.1097-.245.1929-.392.2437-.47.1959-.996.2075-1.473.0322-3.203-1.0892-4.623.355-4.623.355l-.238.6092s2.42-.7705 3.776.3187c.202.1599.372.3571.5.5809.439.1433.832.3986 1.142.7407.31.3422.525.7592.624 1.2099s.078.9195-.059 1.3599c-.138.4404-.388.8372-.727 1.1512-.147.1676-.341.2866-.557.3413-.216.0548-.444.0427-.653-.0347-.195-.1332-.353-.3155-.456-.5285-.065-.1066-.14-.2078-.222-.3025l-.911 1.6136s-2.247 3.5096-3.054 5.1515l-10.529 28.0491c-.347.923-.873 1.768-1.55 2.486-.676.717-1.489 1.293-2.39 1.693s-1.874.616-2.859.636c-.986.021-1.966-.156-2.883-.519-.99-.39-1.884-.989-2.622-1.755s-1.303-1.682-1.656-2.685c-.354-1.003-.487-2.071-.392-3.131.094-1.059.416-2.0857.942-3.0102z" fill="#ffbe9d"/><path d="m124.977 71.5693c.54.355 1.286.113 1.771-.3066.484-.4195.806-.9964 1.274-1.4522 1.36-1.3595 3.631-1.4886 4.934-2.9127.182-.1976.343-.5002.186-.718-.158-.2179-.448-.1775-.69-.1291l-6.257 1.2385" fill="#ffbe9d"/><path d="m126.195 67.2886c.211-.0955.434-.1633.662-.2017.432-.1089 1.061-.2501 1.835-.4034l2.728-.5769.806-.1654c.311-.1138.654-.1022.956.0323.087.064.152.1523.188.2536s.041.2111.014.3152c-.041.1708-.125.3288-.242.4599-.211.2333-.448.4417-.706.6212-1.041.7221-2.182 1.0166-3.094 1.4967-.435.2055-.835.4777-1.186.8068-.323.3106-.577.6656-.843.9681-.192.267-.44.4887-.726.6497s-.605.2573-.932.2822c-.48 0-.678-.238-.662-.242.21.072.432.1062.654.1008.297-.0492.581-.1596.834-.3242.253-.1645.469-.3797.634-.6318.258-.3526.534-.6919.827-1.0166.366-.3625.786-.6647 1.247-.8956.94-.5083 2.077-.8068 3.037-1.4926.232-.1643.445-.3522.638-.5607.177-.1977.238-.4357.113-.5043s-.404-.0363-.682.0202l-.807.1492-2.743.5043c-.783.1371-1.416.242-1.856.3066-.227.0524-.461.0687-.694.0484z" fill="#eb996e"/><path d="m133.085 65.1578c.16-.3745.406-.7061.718-.9682.349-.2618.774-.4034 1.21-.4034.549.0033 1.093.0931 1.614.2663.531.1794 1.08.3037 1.638.3711.467.0537.941-.0187 1.371-.2098.148-.0683.278-.1702.38-.2977.101-.1275.172-.277.205-.4365.031-.1122.031-.2306 0-.3429-.024 0-.024.121-.085.3227-.044.136-.117.2606-.215.3651-.098.1046-.217.1865-.349.2401-.411.1526-.853.2024-1.287.1452-.541-.0851-1.074-.2202-1.59-.4034-.539-.1774-1.103-.2646-1.67-.2582-.476.0111-.935.1816-1.303.4841-.244.2031-.432.4657-.545.7624-.1.238-.109.3591-.092.3631z" fill="#eb996e"/><path d="m133.073 56.4888c-.158.3609-.285.7347-.379 1.1174-.238.7746-.521 1.6943-.835 2.7109-.315 1.0166-.626 1.9283-.876 2.6988-.146.3655-.258.7436-.335 1.1296.201-.3399.366-.6995.493-1.0731.266-.6777.605-1.6136.944-2.6827.338-1.069.601-2.017.77-2.7391.113-.3785.186-.768.218-1.1618z" fill="#eb996e"/><path d="m133.953 66.8446c.123.0177.248.0177.371 0 .155-.0265.314-.0193.465.0211.152.0404.294.113.415.2129.07.074.12.1649.144.2638.025.099.024.2026-.003.3009-.065.2478-.162.4864-.287.71-.161.2806-.214.6107-.149.9279.055.168.149.3208.274.4462.124.1254.277.2199.444.2759.166.0524.34.0706.513.0532.173-.0173.34-.0698.492-.1541.282-.1443.514-.3707.665-.6495.219-.4597.368-.949.444-1.4522.059-.3377.059-.683 0-1.0207-.012-.1268-.061-.2473-.141-.3469-.02 0 .032.1291.052.359.018.3291-.011.6591-.084.9803-.096.4769-.253.9393-.468 1.3756-.132.2457-.341.441-.594.5555-.254.1146-.539.142-.81.0779-.133-.043-.254-.1164-.354-.2145-.099-.098-.174-.218-.219-.3503-.053-.2635-.008-.5372.125-.7705.126-.2442.22-.503.282-.7705.028-.1281.021-.2609-.017-.3859-.039-.125-.11-.238-.204-.3281-.141-.111-.305-.1878-.48-.2242s-.356-.0315-.529.0144c-.12.012-.237.0433-.347.0928z" fill="#eb996e"/><path d="m136.593 69.669s-.077.1049-.069.3308c.011.1585.06.3122.141.4487.081.1366.193.2523.327.3379.207.119.441.1816.68.1816.238 0 .473-.0626.68-.1816.497-.2869.864-.7553 1.024-1.307.176-.5401.176-1.1219 0-1.662-.143-.4366-.401-.8267-.746-1.1296-.228-.2037-.492-.3625-.779-.4679-.102-.0489-.213-.0738-.326-.0726.359.174.693.3966.992.6615.338.3302.577.7487.69 1.2079s.095.9408-.053 1.3901c-.144.4957-.467.9199-.907 1.19-.176.1032-.375.1602-.579.1659-.204.0056-.406-.0403-.587-.1336-.12-.0701-.224-.165-.305-.2784-.081-.1133-.136-.2426-.163-.3791-.041-.1775 0-.3026-.02-.3026z" fill="#eb996e"/><path d="m131.499 72.2029c-.16-.1079-.348-.1655-.541-.1654-.492-.048-.986.0699-1.404.3348l.174.117c.054-.2663.092-.5358.113-.8068.141-1.5571-.355-2.7593-.403-2.727.155.8934.213 1.8009.173 2.7068-.02.2585-.053.5157-.101.7705l-.048.2623.222-.1493c.378-.2467.819-.3785 1.27-.3792.335.0081.537.0645.545.0363z" fill="#eb996e"/><path d="m134.683 62.6334c-.065 0 .024.4841.452.8553.427.3711.907.4034.907.3348s-.383-.1856-.75-.5123c-.367-.3268-.544-.702-.609-.6778z" fill="#eb996e"/><path d="m86.9375 120.801 15.9955.158-2.683-11.606.9 2.19c.829 2.023 2.241 3.753 4.057 4.97 1.815 1.218 3.951 1.868 6.137 1.868 5.059 0 8.557-3.764 10.695-8.347 5.002-10.714 9.823-27.9678 9.823-27.9678l-9.751-8.5684c-7.059 13.3528-13.692 24.9468-13.692 24.9468s-1.916-5.8212-3.396-11.0171c-1.481-5.1959-1.469-7.9229-3.74-10.5128-3.4976-3.9857-8.4717-4.974-13.103-6.1681l-.1734 21.5581z" fill="#407bff"/><path d="m68.6354 104.765 29.1268 5.648 1.416 11.19h-44.6584c-1.2224.015-2.4346-.225-3.5591-.705-1.1245-.479-2.1366-1.188-2.9717-2.081-.8352-.893-1.475-1.95-1.8786-3.104-.4037-1.154-.5623-2.379-.4657-3.598.6414-8.157 1.3393-18.2019 1.8718-22.4497.4034-3.312 1.7347-6.737 3.2959-9.6818 2.2551-4.2439 9.7708-9.6818 16.3586-9.9642l1.2466 27.7424" fill="#407bff"/><g fill="#000" opacity=".4"><path d="m86.9297 120.801 15.9953.158-2.683-11.607.9 2.191c.829 2.022 2.241 3.752 4.057 4.97 1.815 1.218 3.952 1.868 6.137 1.868 5.059 0 8.557-3.764 10.695-8.347 5.002-10.7143 9.823-27.968 9.823-27.968l-9.75-8.5684c-7.06 13.3528-13.692 24.9467-13.692 24.9467s-1.917-5.8212-3.397-11.017c-1.481-5.1959-1.469-7.923-3.74-10.5129-3.4974-3.9856-8.4716-4.974-13.1028-6.1681l-.1735 21.5581z"/><path d="m68.6354 104.766 26.2706 4.816c.5353.1 1.0292.355 1.4191.735s.6584.867.7714 1.399l2.0817 9.912h-44.6584c-1.2224.015-2.4346-.225-3.5591-.704-1.1245-.48-2.1366-1.189-2.9717-2.082-.8352-.893-1.475-1.95-1.8786-3.104-.4037-1.154-.5623-2.379-.4657-3.598.6414-8.157 1.3393-18.2017 1.8718-22.4496.4034-3.312 1.7347-6.7369 3.2959-9.6818 2.2551-4.2438 9.7708-9.6818 16.3586-9.9642l1.2466 27.7424"/></g><path d="m63.1008 103.934c-.0104-.088-.0104-.178 0-.266 0-.198 0-.452 0-.763 0-.69 0-1.642 0-2.824 0-2.3676-.0444-5.6473-.2259-9.2497-.0928-1.8073-.2098-3.5258-.3348-5.083-.0586-1.3822-.2545-2.7552-.585-4.0986-.2307-.8967-.6703-1.7261-1.2829-2.4205-.2372-.2423-.4877-.4712-.7503-.6857.308.1584.5875.367.827.6172.6531.6893 1.1232 1.5311 1.3676 2.4487.3523 1.3541.5632 2.7412.6293 4.1389.1372 1.5612.2582 3.2797.351 5.087.1855 3.6307.2057 6.8942.1654 9.2787-.0242 1.186-.0565 2.146-.0847 2.824l-.0444.762c-.0016.079-.0124.158-.0323.234z" fill="#263238"/><path d="m97.1949 111.219c-.3072-.339-.6651-.629-1.061-.859-.4707-.256-.9705-.455-1.4886-.593-.6011-.173-1.3071-.306-2.0857-.464-3.1144-.637-7.4108-1.521-12.1711-2.42-4.7603-.9-9.093-1.614-12.2276-2.114l-3.7154-.593-1.0086-.17c-.1188-.014-.2362-.038-.351-.072.1191 0 .2378.011.355.032l1.0167.129c.8794.117 2.1542.295 3.7235.529 3.1426.468 7.4794 1.161 12.2437 2.053 4.7644.892 9.0608 1.795 12.1631 2.465.7786.169 1.4845.314 2.0897.5.5239.148 1.0268.362 1.4967.637.3018.171.5743.389.8068.646.062.064.1187.132.1694.206.0283.048.0484.088.0444.088z" fill="#263238"/><path d="m63.1744 103.934c0 .036-.5366.161-1.3676.5-.4852.201-.9568.432-1.412.694-.5504.328-1.075.698-1.5693 1.105-.4807.417-.9285.87-1.3393 1.356-.3381.4-.6481.823-.9279 1.266-.476.763-.6939 1.279-.7302 1.263.0251-.13.0672-.256.1251-.375.1374-.332.2964-.654.476-.964.2694-.461.5728-.9.9077-1.315.8281-1.016 1.8411-1.866 2.9853-2.506.4635-.261.9479-.484 1.4483-.665.3365-.126.6816-.227 1.0327-.303.1205-.036.2454-.055.3712-.056z" fill="#263238"/><path d="m100.8 110.906c-.027-.091-.048-.185-.06-.279-.032-.201-.077-.468-.129-.807-.113-.697-.262-1.706-.432-2.957-.3388-2.497-.7502-5.958-1.0972-9.7903-.3469-3.8324-.5527-7.3097-.6656-9.831-.0565-1.2587-.0888-2.2793-.1049-2.9853 0-.3361 0-.6051 0-.8068-.0088-.0939-.0088-.1884 0-.2824.0218.0926.0326.1874.0323.2824l.0524.8068c.0444.7262.1009 1.7387.1735 2.9772.1492 2.5172.3832 5.9906.7261 9.8189.3429 3.8285.7344 7.2895 1.0364 9.7905.15 1.235.275 2.239.363 2.965.037.335.069.601.093.807.017.096.021.194.012.291z" fill="#263238"/><path d="m110.455 106.569s-.093-.089-.234-.267c-.195-.257-.375-.527-.536-.807-1.083-1.847-1.582-3.979-1.432-6.1152.02-.3214.063-.6409.129-.9561.014-.1177.044-.233.088-.3429.037 0-.04.5002-.068 1.3071-.068 2.1061.419 4.1921 1.412 6.0511.379.698.673 1.105.641 1.13z" fill="#263238"/><g fill="#fafafa"><path d="m62.9698 88.9435s-.0525.0202-.1493.0323c-.1456.0234-.2924.0382-.4397.0443-.5412.0228-1.0831-.0206-1.6137-.1291-.7881-.1584-1.5575-.399-2.2954-.718-.8351-.3469-1.7226-.8068-2.6505-1.2546-.8686-.4362-1.7679-.8084-2.6908-1.1134-.7489-.2515-1.5273-.4048-2.3156-.4559-.7302-.0237-1.4601.0592-2.1664.2461.0434-.0288.0911-.0506.1412-.0645.1307-.0572.2656-.1044.4035-.1412.5258-.1409 1.0695-.2034 1.6136-.1856.8055.0252 1.6036.1609 2.3721.4034.9348.3008 1.8441.6758 2.7191 1.1215.9318.4599 1.8113.9117 2.6343 1.2626.7245.3219 1.4783.5732 2.251.7504.7193.147 1.4525.2147 2.1866.2017z"/><path d="m67.9957 87.9634c-.775.2359-1.5685.4059-2.3721.5083-.7961.1733-1.6062.2746-2.4205.3025.775-.2359 1.5685-.4059 2.3721-.5083.7961-.1735 1.6062-.2748 2.4205-.3025z"/><path d="m62.7958 96.6204c-.1857.1047-.3817.1899-.585.2541-.3832.1493-.944.351-1.6419.5769-1.825.5856-3.6877 1.0465-5.5752 1.3796-1.1054.1937-2.1664.3349-3.1346.4317-.8587.1109-1.7265.1339-2.5899.0686-.5857-.0474-1.1561-.2105-1.6782-.4801-.142-.0738-.277-.1602-.4034-.2582-.0466-.0318-.0887-.0698-.1251-.1129 0 0 .1936.125.5608.2985.5228.2361 1.0851.3729 1.658.4034.8529.0442 1.708.0063 2.5536-.1129.9642-.109 2.0171-.2542 3.1185-.4478 1.8786-.3332 3.7372-.7709 5.5671-1.3111.702-.2098 1.2667-.4034 1.6581-.5123.201-.0744.4073-.1337.6172-.1775z"/><path d="m67.8504 98.7465c-.7269.1155-1.463.1628-2.1986.1412-.7335.0463-1.4696.0233-2.1987-.0685.7269-.1155 1.463-.1628 2.1987-.1412.7334-.0463 1.4695-.0233 2.1986.0685z"/><path d="m47.1094 117.125c.0046-.075.0196-.148.0444-.218.0403-.161.0968-.359.1613-.605l.121-.436c.0525-.157.1211-.323.1856-.504.1451-.412.3121-.816.5003-1.21l.3267-.69c.117-.242.2663-.476.4034-.726.3043-.529.6355-1.042.9924-1.537 1.6481-2.279 3.797-4.149 6.2813-5.466.5402-.286 1.095-.543 1.662-.771.2703-.101.5205-.218.7746-.299l.7302-.229c.4183-.134.8439-.243 1.2748-.327.1896-.041.3631-.085.5244-.113l.4519-.061.6212-.076c.0722-.011.1457-.011.2179 0-.0688.026-.1407.044-.2138.052l-.6132.117-.4438.077-.5204.129c-.3711.101-.8068.185-1.2546.355l-.7181.242c-.2501.085-.5003.202-.7625.306-.5587.232-1.1053.492-1.6379.779-1.2131.671-2.3552 1.463-3.4088 2.364-1.0408.918-1.9868 1.939-2.824 3.046-.363.524-.7221 1.016-.9964 1.513-.1412.246-.2905.476-.4034.714l-.3389.677c-.2299.428-.3711.839-.5244 1.211-.0686.177-.1412.342-.1977.496l-.1412.427-.1977.593c-.0193.059-.045.116-.0766.17z"/><path d="m67.3293 104.733c-.6747.587-1.2355 1.292-1.654 2.082-.44.863-.7525 1.786-.9279 2.739-.2086 1.172-.3433 2.357-.4034 3.546-.0502 1.198-.185 2.391-.4034 3.57-.1976.967-.5389 1.898-1.0126 2.764-.3163.58-.7251 1.104-1.2102 1.553-.1322.122-.2738.234-.4236.335-.1009.068-.1574.104-.1614.096.687-.573 1.2592-1.271 1.6863-2.057.447-.858.7676-1.777.9521-2.727.2147-1.172.3495-2.356.4034-3.546.0524-1.199.1872-2.393.4034-3.574.1879-.967.5197-1.9.9843-2.768.3171-.585.7257-1.116 1.2103-1.573.1269-.122.2617-.235.4034-.339.0466-.04.0981-.074.1533-.101z"/><path d="m74.2168 121.672c-.0565 0 0-3.477.1493-7.762.1493-4.284.3025-7.757.359-7.757s0 3.477-.1492 7.765c-.1493 4.289-.3026 7.758-.3591 7.754z"/><path d="m85.1674 121.076c-.0759-.162-.1354-.331-.1775-.504-.0654-.199-.1206-.401-.1654-.605-.0524-.239-.125-.509-.1694-.807-.1255-.712-.197-1.432-.2138-2.155-.0397-1.775.2334-3.543.8068-5.224.2337-.684.5183-1.35.8512-1.992.1331-.279.2824-.513.4034-.723.1025-.182.2157-.359.3389-.528.09-.154.1969-.297.3187-.428.0363.021-.4034.646-.9319 1.747-.3136.643-.5831 1.306-.8068 1.985-.5526 1.663-.8253 3.407-.8069 5.159.0092.715.0644 1.427.1654 2.134.2018 1.203.4277 1.929.3873 1.941z"/><path d="m66.5616 76.4903c0 .0323-.6374-.2461-1.6863-.5849-2.732-.882-5.6273-1.1384-8.4717-.7504-1.0893.1493-1.7549.3187-1.763.2824.1447-.0698.298-.12.4559-.1492.4221-.1168.8504-.2097 1.2829-.2784 2.866-.4762 5.8061-.2166 8.5443.7544.4115.1451.8154.3107 1.2103.4962.1515.0587.2951.1359.4276.2299z"/><path d="m98.4487 93.4693c-.4989.026-.999.0179-1.4967-.0242-.9238-.0364-2.1987-.0848-3.6066-.117-1.4079-.0323-2.6827-.0525-3.6065-.0605-.4995.0158-.9995-.0017-1.4967-.0525.1322-.0312.2675-.0475.4034-.0484.2582 0 .6334-.0363 1.0973-.0484.9238-.0282 2.1986-.0363 3.6106 0s2.6868.1089 3.6308.1856c.4599.0363.831.0685 1.0892.1008.127.0081.2528.0297.3752.0646z"/><path d="m106.392 91.9407c0 .0363-.504.2098-1.291.597-2.058 1.0123-3.801 2.5659-5.042 4.494-.4765.7382-.7064 1.2304-.7387 1.2102.0225-.1274.0661-.2501.1291-.3631.1414-.3206.303-.6318.4841-.9318.5915-.9975 1.3345-1.8971 2.2025-2.6666.866-.7717 1.844-1.407 2.901-1.8839.319-.1435.646-.2675.98-.3711.121-.0445.247-.073.375-.0847z"/><path d="m102.467 79.0119c-.695-.0238-1.388.0731-2.049.2864-.7143.2493-1.4065.5569-2.0699.9198-.819.454-1.6745.8385-2.5577 1.1497-1.6324.523-3.3686.6353-5.0548.3268-.5068-.092-1.0048-.2269-1.4886-.4034-.181-.0567-.3555-.1324-.5204-.2259 0-.0404.7584.2783 2.0171.4841 1.6626.2595 3.3629.1283 4.966-.3833.8731-.3089 1.7214-.6838 2.5375-1.1215.6753-.3584 1.3814-.6554 2.1098-.8875.496-.1572 1.013-.2322 1.533-.2218.135.0039.27.0174.403.0403.126.0162.178.0283.174.0363z"/><path d="m100.448 106.048c-.147.093-.304.167-.4684.222-.1533.064-.3429.141-.5688.214-.2259.072-.4801.169-.7665.242-.6755.188-1.3628.331-2.0574.427-.8506.11-1.7083.155-2.5657.133-.8572-.032-1.7108-.127-2.5537-.286-.6841-.138-1.358-.323-2.0171-.553-.2864-.088-.5325-.197-.7503-.286-.2179-.089-.4034-.174-.5567-.246-.1605-.067-.3134-.151-.4559-.25 0-.037.6818.286 1.8113.641.6615.208 1.3351.375 2.0171.5 1.6686.309 3.3747.361 5.0589.154.6875-.085 1.3692-.212 2.0413-.38 1.1376-.29 1.8189-.568 1.8319-.532z"/><path d="m109.713 117.989c-.058-.037-.11-.08-.157-.13-.093-.092-.247-.217-.404-.403-.487-.521-.915-1.095-1.275-1.71-1.164-2.063-1.783-4.389-1.799-6.757.003-2.353.311-4.694.916-6.967.218-.872.403-1.574.553-2.0537.068-.2218.125-.4034.169-.5526.044-.1493.065-.1937.073-.1896-.001.0671-.012.1337-.033.1977-.032.1533-.076.3388-.129.5647-.121.5205-.286 1.2105-.488 2.0695-.557 2.265-.84 4.59-.843 6.922.013 2.331.596 4.623 1.698 6.677.346.615.751 1.195 1.211 1.731.318.387.52.584.508.601z"/><path d="m124.411 104.288c-.645-.511-1.365-.919-2.134-1.21-.842-.291-1.705-.516-2.582-.673-1.089-.184-2.167-.431-3.228-.739-1.915-.623-3.663-1.6738-5.111-3.0737-.437-.4223-.841-.8768-1.21-1.3595-.133-.1694-.222-.3106-.286-.4034-.065-.0927-.093-.1452-.085-.1492.156.1571.301.3242.435.5002.388.4606.804.8959 1.247 1.303 1.454 1.3495 3.185 2.3666 5.071 2.9816 1.05.306 2.115.556 3.191.75.884.17 1.753.411 2.598.722.571.216 1.106.515 1.59.888.131.099.256.208.371.326.101.089.141.133.133.137z"/><path d="m129.021 90.8278c-.155-.1111-.3-.2367-.431-.3752-.133-.125-.295-.2783-.497-.4477-.201-.1695-.403-.3712-.677-.5648-.596-.4807-1.221-.924-1.872-1.3272-1.596-.9872-3.332-1.7297-5.148-2.2026-.742-.1911-1.495-.3379-2.255-.4397-.323-.0525-.617-.0727-.875-.0969s-.484-.0443-.666-.0524c-.191-.0008-.381-.0184-.569-.0524.188-.0291.379-.0386.569-.0283.224-.0112.449-.0112.674 0 .258 0 .561.0202.887.0646.768.0839 1.53.2187 2.28.4034.919.2355 1.819.5375 2.694.9036.868.3784 1.707.8207 2.51 1.3232.652.4163 1.276.8759 1.868 1.3756.258.2057.467.4034.661.5971.166.1503.323.3092.472.476.141.134.266.2828.375.4437z"/><path d="m93.7123 72.3102c-.2368.158-.4949.2816-.7665.3671-.6364.2496-1.2903.4518-1.9565.6051-.6637.1563-1.3378.2642-2.0171.3227-.2808.0426-.5664.0426-.8472 0 0-.0645 1.2788-.1694 2.8239-.5365s2.7392-.8189 2.7634-.7584z"/></g><path d="m108.032 129.128c.052.18.059.37.019.553s-.126.353-.248.495c-.123.142-.279.25-.455.316s-.365.086-.55.06c-.216-.031-.417-.123-.581-.267-.163-.143-.281-.331-.339-.54l-.343-1.267h.052c.035.183.026.372-.026.55-.052.179-.147.343-.275.478s-.286.238-.462.3c-.175.062-.363.081-.548.056-.528 0-.984-.771-1.137-1.178-.399.039-.801-.033-1.163-.206-.361-.174-.668-.443-.887-.778l-2.3679-3.696-4.3852-3.207 2.6545-9.476 9.4356 6.108c.372.29.428.403 1.017.956l6.092 5.603c-.69.404-1.275.384-2.235 0-.96-.383-5.164-3.227-5.164-3.227l1.896 8.33" fill="#ffbe9d"/><path d="m99.9693 121.333s.1087.048.2787.165l.314.218c.15.094.286.208.404.339.139.161.249.345.322.545.073.214.15.431.23.661l.517 1.517c.359 1.081.674 2.057.891 2.772.138.378.242.768.311 1.165-.183-.36-.334-.735-.452-1.121-.254-.702-.593-1.67-.952-2.747-.173-.537-.343-1.049-.5-1.521-.073-.234-.141-.456-.21-.666-.06-.185-.152-.358-.27-.512-.102-.126-.219-.24-.347-.339l-.291-.246c-.173-.137-.2538-.218-.2457-.23z" fill="#eb996e"/><path d="m105.644 128.695c-.06-.128-.104-.264-.133-.403l-.302-1.081c-.258-.912-.601-2.175-1.041-3.55-.44-1.376-.9-2.602-1.452-3.361-.207-.303-.468-.564-.771-.77-.222-.137-.363-.178-.359-.202.037-.001.074.006.109.02.1.026.198.063.29.109.335.187.626.445.852.755.601.766 1.085 2.017 1.529 3.384.443 1.368.766 2.655.984 3.578.109.46.19.836.242 1.098.039.137.056.28.052.423z" fill="#eb996e"/><path d="m108.079 129.269c-.073-.134-.128-.276-.165-.424-.101-.322-.226-.714-.375-1.178-.307-.996-.714-2.376-1.154-3.901-.44-1.524-.807-2.864-1.11-3.913-.104-.388-.33-.733-.645-.984-.128-.082-.263-.152-.403-.21.039-.009.081-.009.121 0 .113.026.221.071.318.133.353.242.613.596.739 1.005.33.996.722 2.376 1.169 3.901.448 1.525.827 2.916 1.098 3.921.121.468.226.867.306 1.21.049.143.083.29.101.44z" fill="#eb996e"/></svg>
